<svg xmlns="http://www.w3.org/2000/svg" width="150" height="51" viewBox="0 0 150 51">
    <g fill="none" fill-rule="evenodd">
        <rect width="150" height="51" fill="#000" rx="6"/>
        <g fill="#FFF">
            <path d="M38.629 32.624c-.789 1.724-1.17 2.497-2.183 4.02-1.42 2.128-3.419 4.78-5.896 4.8-2.201.021-2.765-1.41-5.752-1.394-2.987.015-3.61 1.423-5.811 1.403-2.478-.023-4.371-2.418-5.79-4.547-3.968-5.952-4.382-12.939-1.935-16.654 1.738-2.64 4.479-4.182 7.057-4.182 2.628 0 4.278 1.418 6.448 1.418 2.105 0 3.388-1.42 6.424-1.42 2.294 0 4.725 1.23 6.458 3.36-5.677 3.068-4.754 11.06.98 13.196"/>
            <path d="M28.888 13.689c1.101-1.395 1.94-3.366 1.637-5.38-1.8.122-3.908 1.251-5.14 2.723-1.116 1.339-2.037 3.322-1.68 5.25 1.968.061 4-1.099 5.183-2.593"/>
        </g>
        <g fill="#FFF">
            <path d="M52.06 22.875c.191.735.398 1.5.665 2.326l1.53 4.37h-4.357l1.51-4.398c.228-.714.448-1.484.652-2.298zm-1.347-2.71L45.03 36.653h2.601l1.694-5.064h5.501l1.746 5.064h2.674L53.54 20.165h-2.826zM65.968 26.504c2.256 0 3.264 2.06 3.264 4.1 0 2.634-1.288 4.271-3.362 4.271a3.062 3.062 0 0 1-2.98-2.315 3.222 3.222 0 0 1-.09-.808v-2.007c0-.181.044-.4.08-.615l.037-.204c.377-1.425 1.632-2.422 3.051-2.422m.631-2.066c-1.725 0-3.106.656-4.024 1.905l-.1-1.642H60.16l.013.209c.07 1.022.098 2.147.098 3.761v12.71h2.53v-5.932c.786.928 2.037 1.466 3.46 1.466 1.479 0 2.84-.57 3.832-1.606 1.107-1.155 1.694-2.815 1.694-4.8 0-1.751-.51-3.268-1.471-4.38a4.835 4.835 0 0 0-3.717-1.69M78.998 26.504c2.255 0 3.264 2.06 3.264 4.1 0 2.634-1.288 4.271-3.362 4.271a3.06 3.06 0 0 1-2.98-2.315 3.106 3.106 0 0 1-.09-.808v-2.007c0-.181.041-.403.083-.617a4.66 4.66 0 0 1 .036-.202c.375-1.425 1.63-2.422 3.049-2.422m.628-2.066c-1.722 0-3.103.656-4.021 1.905l-.1-1.642h-2.316l.013.209c.07 1.022.099 2.147.099 3.761v12.71h2.529v-5.932c.786.928 2.038 1.466 3.458 1.466 1.479 0 2.842-.57 3.838-1.606 1.104-1.155 1.691-2.815 1.691-4.8 0-1.751-.51-3.268-1.472-4.38a4.84 4.84 0 0 0-3.719-1.69M95.95 27.15c-2.361-.9-3.12-1.61-3.12-2.92 0-1.104.89-2.216 2.877-2.216 1.64 0 2.69.561 2.971.735l.215.13.714-2.081-.143-.082c-.424-.245-1.631-.816-3.682-.816-3.228 0-5.483 1.88-5.483 4.567 0 2.168 1.412 3.685 4.443 4.771 2.147.79 2.946 1.602 2.946 2.991 0 1.571-1.234 2.548-3.217 2.548-1.291 0-2.62-.37-3.647-1.018l-.217-.137-.68 2.129.124.08c.954.629 2.754 1.085 4.277 1.085 4.348 0 5.89-2.616 5.89-4.855 0-2.308-1.237-3.73-4.268-4.911M104.772 21.86l-2.48.768v2.073h-1.819v1.994h1.818v6.108c0 1.476.285 2.511.875 3.164.566.612 1.435.949 2.449.949.957 0 1.634-.186 1.955-.299l.142-.048-.121-2-.244.075c-.318.097-.646.132-1.176.132-.98 0-1.4-.61-1.4-2.045v-6.036h3.052v-1.994h-3.051v-2.84zM114.022 26.408c2.276 0 3.313 2.188 3.313 4.22 0 2.502-1.415 4.317-3.362 4.317h-.024c-1.919 0-3.313-1.785-3.313-4.243 0-2.137 1.048-4.294 3.386-4.294m.072-1.969c-3.54 0-6.01 2.606-6.01 6.332 0 3.618 2.39 6.145 5.819 6.145h.02c2.9 0 6.013-1.991 6.013-6.36 0-1.774-.558-3.299-1.61-4.413-1.064-1.115-2.528-1.704-4.232-1.704M127.686 24.554l-.152-.039a2.509 2.509 0 0 0-.629-.076c-1.324 0-2.51.767-3.173 2.01l-.072-1.747h-2.274l.016.209c.07.987.096 2.096.096 3.593l-.024 8.15h2.532v-6.36c0-.345.024-.673.07-.967.285-1.527 1.33-2.514 2.661-2.514.259 0 .463.023.68.043l.27.026v-2.328zM133.207 26.312c.768 0 1.394.235 1.857.699.727.731.856 1.805.872 2.323h-5.77c.233-1.441 1.148-3.022 3.041-3.022m.166-1.897c-3.367 0-5.718 2.652-5.718 6.454 0 3.656 2.34 6.023 5.963 6.023 1.904 0 3.228-.413 4.006-.757l.15-.07-.486-1.858-.21.084c-.69.275-1.605.558-3.17.558-1.099 0-3.636-.357-3.789-3.616l8.165.023.034-.158c.051-.255.075-.594.075-1.043 0-2.6-1.314-5.64-5.02-5.64"/>
        </g>
        <g fill="#FFF">
            <path d="M46.178 15.812c.287.048.703.048 1.148.048 2.429.01 3.745-1.206 3.745-3.312.013-1.864-1.161-3.012-3.561-3.012-.587 0-1.032.049-1.332.105v6.17zm-1.148-6.91a18.358 18.358 0 0 1 2.428-.164c1.63 0 2.79.324 3.561.961.797.638 1.252 1.55 1.252 2.816 0 1.272-.455 2.312-1.265 3.032-.835.729-2.19 1.122-3.902 1.122-.82 0-1.487-.023-2.074-.092V8.9zM56.38 15.962c1.097 0 1.92-.912 1.92-2.187 0-.949-.536-2.142-1.894-2.142-1.342 0-1.93 1.111-1.93 2.177 0 1.227.782 2.152 1.891 2.152h.013zm-.039.765c-1.696 0-3.028-1.111-3.028-2.884 0-1.874 1.396-2.975 3.132-2.975 1.815 0 3.041 1.17 3.041 2.87 0 2.087-1.632 2.99-3.132 2.99h-.013zM61.302 10.996l.849 2.835c.17.625.338 1.217.455 1.795h.041c.142-.566.352-1.17.561-1.782l1.03-2.848h.967l.978 2.802c.235.658.416 1.262.56 1.828h.04c.103-.566.274-1.157.483-1.815l.9-2.815h1.136L67.266 16.6h-1.045l-.964-2.674a18.261 18.261 0 0 1-.561-1.854h-.026a15.324 15.324 0 0 1-.574 1.864l-1.02 2.665h-1.042l-1.906-5.605h1.174zM70.45 12.513c0-.591-.013-1.055-.052-1.517h1.02l.061.916h.029c.313-.523 1.042-1.043 2.087-1.043.874 0 2.232.461 2.232 2.386v3.346h-1.148v-3.23c0-.906-.38-1.669-1.464-1.669a1.64 1.64 0 0 0-1.54 1.04c-.05.13-.077.315-.077.475v3.384H70.45v-4.088zM77.692 16.6h1.149V8.38h-1.149zM83.355 15.962c1.096 0 1.919-.912 1.919-2.187 0-.949-.536-2.142-1.89-2.142-1.346 0-1.933 1.111-1.933 2.177 0 1.227.781 2.152 1.89 2.152h.014zm-.04.765c-1.693 0-3.025-1.111-3.025-2.884 0-1.874 1.394-2.975 3.13-2.975 1.815 0 3.04 1.17 3.04 2.87 0 2.087-1.631 2.99-3.131 2.99h-.013zM91.238 13.74c-1.254-.023-2.676.173-2.676 1.262 0 .67.496.972 1.07.972.836 0 1.37-.462 1.552-.939a.88.88 0 0 0 .054-.324v-.971zm1.12 1.517c0 .485.026.962.093 1.344H91.42l-.103-.709h-.039c-.341.441-1.032.834-1.932.834-1.277 0-1.932-.798-1.932-1.61 0-1.353 1.358-2.095 3.797-2.082v-.115c0-.464-.142-1.308-1.433-1.298-.603 0-1.215.15-1.658.418l-.26-.686c.522-.288 1.29-.484 2.086-.484 1.945 0 2.413 1.17 2.413 2.292v2.096zM98.506 13.277c0-.14-.013-.301-.055-.442-.168-.635-.794-1.167-1.655-1.167-1.187 0-1.893.925-1.893 2.152 0 1.147.639 2.086 1.867 2.086.771 0 1.475-.464 1.681-1.217.042-.137.055-.278.055-.44v-.972zm1.145-4.899v6.773c0 .5.016 1.066.055 1.448h-1.032l-.052-.974h-.026c-.351.627-1.11 1.102-2.139 1.102-1.525 0-2.715-1.148-2.715-2.849-.013-1.876 1.306-3.009 2.832-3.009.98 0 1.632.403 1.906.844h.026V8.378h1.145zM106.935 15.962c1.096 0 1.919-.912 1.919-2.187 0-.949-.536-2.142-1.893-2.142-1.343 0-1.932 1.111-1.932 2.177 0 1.227.783 2.152 1.893 2.152h.013zm-.04.765c-1.696 0-3.028-1.111-3.028-2.884 0-1.874 1.397-2.975 3.132-2.975 1.816 0 3.042 1.17 3.042 2.87 0 2.087-1.632 2.99-3.132 2.99h-.013zM111.49 12.513c0-.591-.013-1.055-.054-1.517h1.018l.068.916h.026c.31-.523 1.042-1.043 2.087-1.043.874 0 2.232.461 2.232 2.386v3.346h-1.151v-3.23c0-.906-.378-1.669-1.462-1.669a1.64 1.64 0 0 0-1.538 1.04c-.052.13-.078.315-.078.475v3.384h-1.148v-4.088zM122.88 9.652v1.344h1.645v.775h-1.645v3.022c0 .696.223 1.089.861 1.089.313 0 .497-.023.668-.069l.051.775a3.53 3.53 0 0 1-1.019.138c-.532 0-.964-.16-1.238-.428-.313-.312-.445-.809-.445-1.47v-3.057h-.978v-.775h.978v-1.03l1.122-.314zM125.817 8.378h1.146v3.499h.029c.18-.29.468-.556.822-.72a2.466 2.466 0 0 1 1.174-.287c.848 0 2.206.461 2.206 2.394V16.6h-1.148v-3.218c0-.915-.38-1.667-1.461-1.667-.745 0-1.32.464-1.542 1.02-.064.137-.08.288-.08.484V16.6h-1.146V8.38zM137.066 13.242c.01-.638-.3-1.655-1.58-1.655-1.174 0-1.67.949-1.761 1.655h3.341zm-3.354.73c.026 1.379 1.006 1.945 2.152 1.945.822 0 1.332-.128 1.75-.278l.208.716c-.404.164-1.11.36-2.113.36-1.932 0-3.106-1.145-3.106-2.825 0-1.701 1.135-3.035 2.974-3.035 2.064 0 2.596 1.612 2.596 2.642 0 .209-.013.37-.036.487l-4.425-.013z"/>
        </g>
    </g>
</svg>
