<svg xmlns="http://www.w3.org/2000/svg" xmlns:xlink="http://www.w3.org/1999/xlink" width="155" height="51" viewBox="0 0 155 51">
    <defs>
        <path id="a" d="M.45 1.9v31.607c0 .38.167.638.433.724l17.048-16.687L1.028 1c-.34.091-.579.395-.579.9"/>
        <linearGradient id="b" x1="50.002%" x2="50.002%" y1="-1.704%" y2="101.28%">
            <stop offset="0%" stop-color="#93CFBC"/>
            <stop offset="100%" stop-color="#0577AF"/>
        </linearGradient>
        <path id="d" d="M1.028 1l16.903 16.544 4.696-4.595-7.055-4.021s-.049-.029-.142-.08l-.005-.002a10.05 10.05 0 0 0-.152-.087l-.034-.02-.077-.044L2.904 1.708l-.946-.54a1.415 1.415 0 0 0-.69-.202.816.816 0 0 0-.24.034"/>
        <linearGradient id="e" x1="-2.681%" x2="100.003%" y1="48.023%" y2="48.023%">
            <stop offset="0%" stop-color="#52BAA8"/>
            <stop offset="100%" stop-color="#E4E997"/>
        </linearGradient>
        <path id="g" d="M.883 18.931c.207.07.473.033.763-.13.604-.347 11.991-6.836 13.71-7.816l.046-.028.03-.015.05-.028.054-.033.01-.005c.003-.003.006-.003.006-.003l.007-.005.006-.002.002-.003h.005l7.055-4.021-4.696-4.598L.884 18.931z"/>
        <linearGradient id="h" x1="49%" x2="49%" y1=".006%" y2="103.09%">
            <stop offset="0%" stop-color="#893D91"/>
            <stop offset="100%" stop-color="#E6382F"/>
        </linearGradient>
        <path id="j" d="M2.43 4.794l4.697 4.598.019-.01.093-.054.03-.018 2.023-1.153 4.689-2.672c.72-.451.63-1.045-.023-1.392-.672-.36-6.83-3.894-6.83-3.894L2.43 4.794z"/>
        <linearGradient id="k" x1="52.935%" x2="52.935%" y1=".003%" y2="100.003%">
            <stop offset="0%" stop-color="#F9CD6D"/>
            <stop offset="100%" stop-color="#EF8774"/>
        </linearGradient>
    </defs>
    <g fill="none" fill-rule="evenodd">
        <rect width="155" height="51" fill="#231815" rx="6"/>
        <g transform="translate(10.333 10.2)">
            <mask id="c" fill="#fff">
                <use xlink:href="#a"/>
            </mask>
            <path fill="url(#b)" d="M.45 1.9v31.607c0 .38.167.638.433.724l17.048-16.687L1.028 1c-.34.091-.579.395-.579.9" mask="url(#c)"/>
        </g>
        <g transform="translate(10.333 10.2)">
            <mask id="f" fill="#fff">
                <use xlink:href="#d"/>
            </mask>
            <path fill="url(#e)" d="M1.028 1l16.903 16.544 4.696-4.595-7.055-4.021s-.049-.029-.142-.08l-.005-.002a10.05 10.05 0 0 0-.152-.087l-.034-.02-.077-.044L2.904 1.708l-.946-.54a1.415 1.415 0 0 0-.69-.202.816.816 0 0 0-.24.034" mask="url(#f)"/>
        </g>
        <g transform="translate(10.333 25.5)">
            <mask id="i" fill="#fff">
                <use xlink:href="#g"/>
            </mask>
            <path fill="url(#h)" d="M.883 18.931c.207.07.473.033.763-.13.604-.347 11.991-6.836 13.71-7.816l.046-.028.03-.015.05-.028.054-.033.01-.005c.003-.003.006-.003.006-.003l.007-.005.006-.002.002-.003h.005l7.055-4.021-4.696-4.598L.884 18.931z" mask="url(#i)"/>
        </g>
        <g transform="translate(25.833 22.95)">
            <mask id="l" fill="#fff">
                <use xlink:href="#j"/>
            </mask>
            <path fill="url(#k)" d="M2.43 4.794l4.697 4.598.019-.01.093-.054.03-.018 2.023-1.153 4.689-2.672c.72-.451.63-1.045-.023-1.392-.672-.36-6.83-3.894-6.83-3.894L2.43 4.794z" mask="url(#l)"/>
        </g>
        <g fill="#FAFAFA">
            <path d="M120.627 25.399c-1.028 0-1.775.283-2.235.844-.46.564-.697 1.459-.71 2.69v.334c0 1.4.238 2.4.71 3.002.473.604 1.23.902 2.274.902.87 0 1.552-.346 2.046-1.043.493-.696.741-1.654.741-2.878 0-1.242-.248-2.193-.741-2.856-.494-.663-1.189-.995-2.085-.995m.222 9.035a4.4 4.4 0 0 1-1.798-.357c-.545-.24-1-.607-1.37-1.102h-.108c.073.579.109 1.13.109 1.65v4.095h-1.524V24.3h1.24l.212 1.364h.072c.395-.545.85-.94 1.372-1.18.522-.245 1.12-.365 1.795-.365 1.336 0 2.369.451 3.095 1.351.726.903 1.09 2.168 1.09 3.797 0 1.635-.37 2.905-1.108 3.81-.739.905-1.765 1.357-3.077 1.357M127.043 34.254h1.527v-14.13h-1.527zM133.9 33.191c.951 0 1.698-.257 2.24-.773.543-.512.814-1.234.814-2.16v-.897l-1.527.061c-1.214.044-2.09.227-2.627.559-.535.331-.803.844-.803 1.54 0 .543.165.959.5 1.244.334.283.802.426 1.404.426zm3.45 1.063l-.303-1.417h-.075c-.501.624-1.005 1.045-1.503 1.267-.499.222-1.124.331-1.873.331-1 0-1.783-.255-2.348-.762-.569-.51-.853-1.232-.853-2.173 0-2.009 1.628-3.06 4.885-3.159l1.713-.054v-.62c0-.78-.17-1.356-.512-1.728-.34-.372-.886-.559-1.632-.559-.84 0-1.793.255-2.852.763l-.47-1.153a7.23 7.23 0 0 1 1.632-.624 7.084 7.084 0 0 1 1.78-.227c1.204 0 2.093.262 2.674.788.579.527.868 1.371.868 2.534v6.793h-1.132zM139.369 24.301h1.635l2.209 5.676c.485 1.296.785 2.232.901 2.808h.075c.078-.311.246-.84.501-1.586.254-.747 1.088-3.048 2.499-6.898h1.637l-4.334 11.332c-.43 1.12-.93 1.915-1.504 2.384-.573.47-1.279.704-2.11.704-.468 0-.928-.05-1.383-.153V37.36c.339.07.716.11 1.132.11 1.051 0 1.798-.582 2.245-1.745l.563-1.415-4.066-10.009zM91.673 30.513c.483-.48.527-1.145.527-1.52 0-1.5-.907-3.83-2.658-3.83-.548 0-1.14.27-1.475.688-.36.436-.465.997-.465 1.54 0 1.395.824 3.706 2.637 3.706a2.17 2.17 0 0 0 1.434-.584zm-.612 3.955c-.168-.02-.274-.02-.483-.02-.192 0-1.33.043-2.217.333-.462.166-1.813.666-1.813 2.145 0 1.476 1.457 2.54 3.712 2.54 2.023 0 3.1-.959 3.1-2.25 0-1.063-.695-1.621-2.3-2.748zm1.498-9.244c.486.398 1.496 1.23 1.496 2.813 0 1.537-.884 2.267-1.772 2.955-.274.27-.59.561-.59 1.02 0 .46.316.71.55.895l.76.582c.928.77 1.77 1.479 1.77 2.917 0 1.956-1.92 3.932-5.546 3.932-3.06 0-4.534-1.436-4.534-2.976 0-.75.377-1.81 1.625-2.54 1.304-.793 3.076-.895 4.025-.959-.295-.374-.63-.77-.63-1.412 0-.355.105-.564.208-.816a7.052 7.052 0 0 1-.674.043c-2.234 0-3.5-1.645-3.5-3.266 0-.96.444-2.02 1.348-2.79 1.204-.98 2.638-1.145 3.777-1.145h4.345l-1.35.747h-1.308zM81.914 32.453c.506-.666.633-1.497.633-2.308 0-1.83-.887-5.322-3.496-5.322-.695 0-1.39.273-1.896.71-.821.726-.969 1.641-.969 2.534 0 2.058 1.034 5.444 3.58 5.444.822 0 1.665-.395 2.148-1.058m-2.633 1.683c-3.345 0-5.135-2.578-5.135-4.906 0-2.724 2.252-5.05 5.453-5.05 3.092 0 5.032 2.39 5.032 4.907 0 2.45-1.914 5.049-5.35 5.049M70.502 32.453c.506-.666.633-1.497.633-2.308 0-1.83-.886-5.322-3.496-5.322-.694 0-1.39.273-1.896.71-.821.726-.969 1.641-.969 2.534 0 2.058 1.031 5.444 3.581 5.444.821 0 1.664-.395 2.147-1.058m-2.633 1.683c-3.348 0-5.138-2.578-5.138-4.906 0-2.724 2.255-5.05 5.456-5.05 3.092 0 5.03 2.39 5.03 4.907 0 2.45-1.914 5.049-5.348 5.049M61.123 33.81l-3.027.691c-1.228.186-2.328.352-3.493.352-5.844 0-8.065-4.24-8.065-7.563 0-4.052 3.154-7.814 8.553-7.814 1.142 0 2.242.166 3.237.439 1.589.439 2.33.982 2.795 1.295l-1.756 1.65-.742.166.53-.836c-.721-.689-2.033-1.961-4.531-1.961-3.346 0-5.865 2.509-5.865 6.163 0 3.927 2.88 7.627 7.495 7.627 1.356 0 2.053-.27 2.689-.523v-3.363l-3.196.166 1.692-.898h4.488l-.55.523c-.148.125-.169.168-.212.331-.021.189-.042.796-.042 1.005v2.55z"/>
            <path d="M99.249 33.208c-.698-.063-.845-.188-.845-1.004V20.377l.013-.133c.083-.732.294-.857.953-1.234h-3.027l-1.59.752h1.618v.01-.007 12.9c0 .418-.083.48-.57 1.107h3.745l.783-.457c-.36-.045-.719-.066-1.08-.107M105.889 27.216c.398-.145.607-.27.607-.561 0-.829-.945-1.783-2.08-1.783-.842 0-2.417.643-2.417 2.882 0 .354.04.73.064 1.102l3.826-1.64zm1.976 6.184c-.232.125-.465.272-.692.374-.698.312-1.41.396-2.04.396-.673 0-1.724-.046-2.799-.811-1.493-1.038-2.144-2.823-2.144-4.379 0-3.215 2.65-4.794 4.816-4.794.756 0 1.534.187 2.167.582 1.049.686 1.323 1.576 1.467 2.055l-4.94 1.971-1.616.123c.522 2.636 2.333 4.172 4.33 4.172 1.072 0 1.85-.373 2.565-.725l-1.114 1.036zM109.893 24.328v1.37h-.168v-1.37h-.46v-.143h1.088v.143zM111.783 25.698v-1.382h-.007l-.427 1.382h-.131l-.432-1.382h-.005v1.382h-.152v-1.512h.26l.39 1.224h.006l.385-1.224h.266v1.512z"/>
        </g>
        <g fill="#FCFDFD">
            <path d="M49.225 13.574c-.378-1.117-.564-1.721-.564-1.81h-.051c0 .084-.194.688-.581 1.81h1.196zm1.519 1.834H49.69c0-.143-.099-.549-.297-1.214h-1.52c-.206.655-.31 1.06-.31 1.214h-.989c0-.085.256-.778.767-2.079.512-1.298.768-2.014.768-2.147h1.245c0 .123.23.829.692 2.12.465 1.285.698 1.988.698 2.106zM54.982 15.407h-.812c0-.09-.302-.556-.906-1.405-.63-.892-.99-1.504-1.078-1.833h-.051c.054.474.082.902.082 1.285 0 .535.016 1.186.047 1.953h-.809c.031-.67.05-1.407.05-2.208 0-.79-.019-1.461-.05-2.017h.974c0 .115.272.574.814 1.374.576.85.907 1.426.992 1.73h.05a12.312 12.312 0 0 1-.078-1.299c0-.586-.018-1.188-.047-1.805h.822a36.096 36.096 0 0 0-.047 2.017c0 .813.016 1.548.047 2.208M58.85 13.288c0-.416-.125-.765-.37-1.05-.246-.284-.62-.427-1.124-.427-.096 0-.225.01-.388.03.021.434.034.886.034 1.358 0 .515.01 1.027.031 1.537.145.028.287.041.426.041.473 0 .822-.145 1.05-.431.226-.29.34-.643.34-1.058m.897-.14c0 .617-.2 1.15-.6 1.611-.398.457-.956.686-1.676.686-.323 0-.77-.013-1.341-.038a51.133 51.133 0 0 0 0-4.226h.576c.096 0 .235-.002.421-.01.186-.005.307-.007.364-.007.79 0 1.364.193 1.72.584a2 2 0 0 1 .536 1.4M62.906 12.421c0-.428-.28-.645-.842-.645-.205 0-.388.015-.546.046.026.334.037.773.037 1.31.121.006.222.006.304.006.698 0 1.047-.237 1.047-.717m1.235 2.986h-.974c-.256-.765-.45-1.236-.584-1.417-.14-.181-.357-.27-.659-.27l-.364.002c0 .558.008 1.12.028 1.685h-.914a51.133 51.133 0 0 0 0-4.225h.568c.067 0 .204-.003.413-.01.21-.005.403-.01.582-.01 1.005 0 1.508.341 1.508 1.02 0 .538-.289.915-.863 1.127v.048c.223.061.416.23.584.51.166.28.39.793.675 1.54M67.944 13.31c0-.451-.117-.818-.352-1.099-.235-.283-.524-.423-.868-.423-.32 0-.591.143-.816.426-.222.283-.333.642-.333 1.073 0 .452.116.819.351 1.1.238.282.525.423.868.423.318 0 .592-.143.814-.426.225-.286.336-.643.336-1.074m.906-.094c0 .665-.206 1.214-.617 1.652a2.024 2.024 0 0 1-1.53.656c-.578 0-1.061-.2-1.451-.602-.39-.4-.587-.91-.587-1.53 0-.666.207-1.214.62-1.653.411-.436.92-.655 1.53-.655a1.95 1.95 0 0 1 1.452.602c.39.4.583.91.583 1.53M70.709 15.407h-.93c.028-.67.041-1.407.041-2.208 0-.79-.013-1.461-.041-2.017h.93a51.481 51.481 0 0 0 0 4.225M74.576 13.288c0-.416-.121-.765-.37-1.05-.242-.284-.617-.427-1.123-.427-.093 0-.222.01-.387.03.023.434.033.886.033 1.358 0 .515.01 1.027.034 1.537.142.028.284.041.426.041.473 0 .821-.145 1.049-.431.225-.29.338-.643.338-1.058m.897-.14c0 .617-.197 1.15-.597 1.611-.4.457-.959.686-1.677.686-.325 0-.772-.013-1.34-.038.028-.653.04-1.39.04-2.208 0-.788-.012-1.46-.04-2.018h.573c.096 0 .235-.002.421-.01.186-.005.31-.007.367-.007.79 0 1.364.193 1.72.584.354.387.533.856.533 1.4M80.275 13.574c-.375-1.117-.56-1.721-.56-1.81h-.055c0 .084-.191.688-.581 1.81h1.196zm1.519 1.834h-1.051c0-.143-.099-.549-.3-1.214h-1.52c-.206.655-.31 1.06-.31 1.214h-.986c0-.085.256-.778.765-2.079.514-1.298.77-2.014.77-2.147h1.242c0 .123.233.829.695 2.12.465 1.285.695 1.988.695 2.106zM84.78 12.467c0-.461-.312-.693-.932-.693-.157 0-.32.015-.496.048.026.408.039.872.039 1.39.054.003.116.005.189.005.8 0 1.2-.25 1.2-.75m.848-.178c0 .518-.194.9-.581 1.145-.39.247-.868.37-1.434.37-.103 0-.175-.003-.22-.005 0 .405.014.94.037 1.609h-.925c.028-.625.044-1.362.044-2.209 0-.78-.016-1.45-.044-2.017h.573c.08 0 .236-.002.465-.01.23-.005.432-.01.6-.01.416 0 .767.094 1.056.28.285.187.43.467.43.847M88.723 12.467c0-.461-.31-.693-.933-.693-.155 0-.32.015-.493.048.023.408.036.872.036 1.39.054.003.119.005.19.005.802 0 1.2-.25 1.2-.75m.85-.178c0 .518-.197.9-.584 1.145-.39.247-.868.37-1.434.37-.103 0-.176-.003-.22-.005 0 .405.013.94.039 1.609h-.925a49.66 49.66 0 0 0 .042-2.209c0-.78-.013-1.45-.042-2.017h.571c.083 0 .238-.002.465-.01.233-.005.432-.01.6-.01.415 0 .77.094 1.056.28.287.187.431.467.431.847M95.11 13.31c0-.451-.116-.818-.351-1.099-.238-.283-.524-.423-.868-.423-.32 0-.594.143-.816.426-.225.283-.334.642-.334 1.073 0 .452.114.819.352 1.1.235.282.524.423.865.423.32 0 .592-.143.816-.426.225-.286.336-.643.336-1.074m.907-.094c0 .665-.207 1.214-.617 1.652a2.024 2.024 0 0 1-1.53.656c-.578 0-1.064-.2-1.452-.602-.39-.4-.586-.91-.586-1.53 0-.666.207-1.214.617-1.653a2.024 2.024 0 0 1 1.53-.655c.578 0 1.064.202 1.454.602.388.4.584.91.584 1.53M100.473 15.407h-.812c0-.09-.302-.556-.906-1.405-.63-.892-.99-1.504-1.078-1.833h-.051c.054.474.082.902.082 1.285 0 .535.016 1.186.044 1.953h-.806c.031-.67.05-1.407.05-2.208 0-.79-.019-1.461-.05-2.017h.974c0 .115.271.574.814 1.374.576.85.907 1.426.992 1.73h.049a12.312 12.312 0 0 1-.077-1.299c0-.586-.016-1.188-.047-1.805h.822a36.096 36.096 0 0 0-.047 2.017c0 .813.016 1.548.047 2.208"/>
        </g>
    </g>
</svg>
