<svg id="圖層_1" data-name="圖層 1" xmlns="http://www.w3.org/2000/svg" viewBox="0 0 169.2 61.4"><defs><style>.cls-1{fill:#333;}.cls-2{fill:#3562ad;}</style></defs><title>工作區域 1</title><path class="cls-1" d="M70.77,54.38,67.1,44h1.49l3,9h0l3-9h1.45L72.34,54.38Z"/><path class="cls-1" d="M77.86,45.48V44H79.1v1.52Zm1.24,1.36v7.54H77.86V46.84Z"/><path class="cls-1" d="M83.07,52.7a1.32,1.32,0,0,0,.46.45,2.12,2.12,0,0,0,.64.24,3.57,3.57,0,0,0,.74.07,4.35,4.35,0,0,0,.61,0,2.23,2.23,0,0,0,.59-.16,1.17,1.17,0,0,0,.45-.34,1,1,0,0,0,.17-.58.84.84,0,0,0-.36-.73,3.33,3.33,0,0,0-.91-.4c-.37-.1-.77-.2-1.19-.28a5.91,5.91,0,0,1-1.19-.35,2.51,2.51,0,0,1-.92-.63,1.68,1.68,0,0,1-.36-1.14,1.81,1.81,0,0,1,.25-1,2.19,2.19,0,0,1,.66-.66,3,3,0,0,1,.91-.38,3.81,3.81,0,0,1,1-.13,6.23,6.23,0,0,1,1.18.11,2.78,2.78,0,0,1,1,.38,2,2,0,0,1,.67.73A2.9,2.9,0,0,1,87.71,49H86.47a1.22,1.22,0,0,0-.19-.61,1.27,1.27,0,0,0-.41-.39,2.25,2.25,0,0,0-.55-.21,3.05,3.05,0,0,0-.6-.06,3.52,3.52,0,0,0-.56,0,2,2,0,0,0-.52.15,1,1,0,0,0-.38.3.72.72,0,0,0-.15.47.7.7,0,0,0,.23.53,1.72,1.72,0,0,0,.58.35,4.79,4.79,0,0,0,.78.24l.88.19c.31.07.61.16.91.25a3.06,3.06,0,0,1,.79.39,1.79,1.79,0,0,1,.55.61,1.67,1.67,0,0,1,.22.9,2.1,2.1,0,0,1-.29,1.14,2.34,2.34,0,0,1-.74.73,3.15,3.15,0,0,1-1,.38,5.6,5.6,0,0,1-1.15.11,5.17,5.17,0,0,1-1.19-.13,3,3,0,0,1-1-.43,2.23,2.23,0,0,1-.7-.79A2.78,2.78,0,0,1,81.64,52h1.24A1.37,1.37,0,0,0,83.07,52.7Z"/><path class="cls-1" d="M95.59,54.38V53.19h0a2.61,2.61,0,0,1-1,1,3.13,3.13,0,0,1-1.45.32,3.4,3.4,0,0,1-1.24-.19,2,2,0,0,1-.8-.56,2.09,2.09,0,0,1-.43-.87,4.36,4.36,0,0,1-.13-1.12v-5h1.24V52a1.4,1.4,0,0,0,1.54,1.51,2.45,2.45,0,0,0,1-.17,1.76,1.76,0,0,0,.69-.5,2,2,0,0,0,.42-.75,3.14,3.14,0,0,0,.14-.94V46.84h1.24v7.54Z"/><path class="cls-1" d="M106.41,54.35a1.73,1.73,0,0,1-.89.19,1.06,1.06,0,0,1-.77-.27,1.16,1.16,0,0,1-.29-.88,2.93,2.93,0,0,1-1.18.88,4,4,0,0,1-1.47.27,3.8,3.8,0,0,1-1-.11,2.27,2.27,0,0,1-.8-.37,1.71,1.71,0,0,1-.53-.65,2.18,2.18,0,0,1-.2-1,2.27,2.27,0,0,1,.22-1,2,2,0,0,1,.58-.66,2.7,2.7,0,0,1,.82-.39,12.73,12.73,0,0,1,1.91-.37,5.59,5.59,0,0,0,.81-.15,1.29,1.29,0,0,0,.55-.27.69.69,0,0,0,.21-.54,1.14,1.14,0,0,0-.16-.65,1,1,0,0,0-.39-.38,1.56,1.56,0,0,0-.54-.18,4,4,0,0,0-.59,0,2.63,2.63,0,0,0-1.32.3,1.24,1.24,0,0,0-.56,1.13H99.6A2.6,2.6,0,0,1,99.9,48a2.14,2.14,0,0,1,.7-.79,3.12,3.12,0,0,1,1-.43,5.66,5.66,0,0,1,1.2-.13,7,7,0,0,1,1,.08,2.49,2.49,0,0,1,.91.29,1.74,1.74,0,0,1,.65.64,2,2,0,0,1,.25,1.06V52.6a3.26,3.26,0,0,0,.05.65c0,.13.15.2.35.2a1.54,1.54,0,0,0,.38-.06Zm-2-3.86a1.56,1.56,0,0,1-.61.25c-.25,0-.52.1-.8.13l-.84.12a2.74,2.74,0,0,0-.75.21,1.35,1.35,0,0,0-.55.41,1.18,1.18,0,0,0-.21.74,1,1,0,0,0,.12.51,1,1,0,0,0,.32.34,1.35,1.35,0,0,0,.46.19,2.53,2.53,0,0,0,.56.06,3,3,0,0,0,1-.17,2.12,2.12,0,0,0,.71-.42,1.61,1.61,0,0,0,.41-.55,1.37,1.37,0,0,0,.13-.56Z"/><path class="cls-1" d="M110,44V54.38h-1.24V44Z"/><path class="cls-1" d="M114.3,44V54.38h-1.24V44Z"/><path class="cls-1" d="M120.29,55.39a6.84,6.84,0,0,1-.44.93,2.63,2.63,0,0,1-.46.63,1.69,1.69,0,0,1-.57.35,2.28,2.28,0,0,1-.72.1l-.44,0a2.09,2.09,0,0,1-.43-.11V56.14l.38.12a1.82,1.82,0,0,0,.35.05,1.08,1.08,0,0,0,.64-.18,1.16,1.16,0,0,0,.39-.52l.51-1.27-3-7.5h1.41l2.2,6.17h0l2.12-6.17h1.31Z"/><path class="cls-1" d="M132.46,44v9.26H138v1.16h-6.9V44Z"/><path class="cls-1" d="M146.76,54.35a1.73,1.73,0,0,1-.89.19,1.08,1.08,0,0,1-.77-.27,1.16,1.16,0,0,1-.28-.88,3,3,0,0,1-1.19.88,3.92,3.92,0,0,1-1.47.27,3.85,3.85,0,0,1-1-.11,2.14,2.14,0,0,1-.79-.37,1.64,1.64,0,0,1-.54-.65,2.18,2.18,0,0,1-.19-1,2.28,2.28,0,0,1,.21-1,2,2,0,0,1,.58-.66,2.7,2.7,0,0,1,.82-.39c.31-.09.62-.16.94-.22a9.19,9.19,0,0,1,1-.15,5.12,5.12,0,0,0,.81-.15,1.39,1.39,0,0,0,.56-.27.72.72,0,0,0,.2-.54,1.23,1.23,0,0,0-.15-.65,1,1,0,0,0-.4-.38,1.56,1.56,0,0,0-.54-.18,3.9,3.9,0,0,0-.59,0,2.62,2.62,0,0,0-1.31.3,1.26,1.26,0,0,0-.57,1.13H140a2.6,2.6,0,0,1,.29-1.18,2.14,2.14,0,0,1,.7-.79,3.22,3.22,0,0,1,1-.43,5.73,5.73,0,0,1,1.2-.13,7,7,0,0,1,1,.08,2.49,2.49,0,0,1,.91.29,1.84,1.84,0,0,1,.66.64,2.05,2.05,0,0,1,.25,1.06V52.6a2.64,2.64,0,0,0,0,.65c0,.13.14.2.34.2a1.48,1.48,0,0,0,.38-.06Zm-2-3.86a1.68,1.68,0,0,1-.62.25c-.25,0-.52.1-.79.13s-.56.07-.84.12a2.72,2.72,0,0,0-.76.21,1.35,1.35,0,0,0-.55.41,1.18,1.18,0,0,0-.21.74,1,1,0,0,0,.12.51,1,1,0,0,0,.32.34,1.44,1.44,0,0,0,.46.19,2.53,2.53,0,0,0,.56.06,3,3,0,0,0,1.05-.17,2.28,2.28,0,0,0,.72-.42,1.58,1.58,0,0,0,.4-.55,1.4,1.4,0,0,0,.14-.56Z"/><path class="cls-1" d="M150.29,44v3.9h0a1.85,1.85,0,0,1,1-.91,3.61,3.61,0,0,1,1.45-.29,3.44,3.44,0,0,1,1.52.32,3.1,3.1,0,0,1,1.08.87,3.73,3.73,0,0,1,.65,1.27,5,5,0,0,1,.22,1.51,5.37,5.37,0,0,1-.21,1.52,3.53,3.53,0,0,1-.64,1.25,3.21,3.21,0,0,1-1.08.84,3.6,3.6,0,0,1-1.51.3,4.82,4.82,0,0,1-.62,0,4,4,0,0,1-.68-.19,2.7,2.7,0,0,1-.64-.36,2.07,2.07,0,0,1-.5-.56h0v1h-1.24V44Zm4.46,5.56a2.66,2.66,0,0,0-.42-.9,2.22,2.22,0,0,0-.73-.63,2.32,2.32,0,0,0-1-.23,2.05,2.05,0,0,0-1.06.25,2.14,2.14,0,0,0-.72.65,2.68,2.68,0,0,0-.4.91,4.46,4.46,0,0,0-.12,1,4.32,4.32,0,0,0,.13,1.08,2.7,2.7,0,0,0,.41.91,2.16,2.16,0,0,0,.74.63,2.32,2.32,0,0,0,1.1.24,2.2,2.2,0,0,0,1.07-.24,2,2,0,0,0,.69-.66,2.76,2.76,0,0,0,.38-.93,4.83,4.83,0,0,0,.12-1.08A3.94,3.94,0,0,0,154.75,49.52Z"/><path class="cls-1" d="M79.2,15.49a2.46,2.46,0,0,1,0,.52c1.17,1.2,3.5,1.94,6.38,2.12a6,6,0,0,0-1.09,1.65,10.72,10.72,0,0,1-5.84-2.39c-.78,1-2.5,1.93-6.25,2.46a5.58,5.58,0,0,0-1-1.51H65.81V16.75h6.31v1.44c4.73-.61,5.23-1.83,5.23-2.76v-.29H75.54a10.15,10.15,0,0,1-1.59,2,8.25,8.25,0,0,0-1.52-1,9,9,0,0,0,2.5-4l1.81.39c-.13.37-.26.72-.41,1.09h6.79l.28-.09,1.4.46a20.28,20.28,0,0,1-1.9,3.22l-1.59-.57a15.45,15.45,0,0,0,.92-1.5h-3ZM79,28.69a56.29,56.29,0,0,1,6.14,2.37l-1.83,1.11a42.32,42.32,0,0,0-5.86-2.46l1.26-1H72.23l1.81.82a29.14,29.14,0,0,1-6.66,2.72,17.89,17.89,0,0,0-1.5-1.52,23.81,23.81,0,0,0,6.27-2H68.64V19.93h14.2v8.76ZM71.6,15H66.27V13.42H71.6Zm-1,7.51H80.81V21.22H70.6Zm0,2.44H80.81V23.68H70.6Zm0,2.5H80.81V26.14H70.6Z"/><path class="cls-1" d="M99,25.7c-.44-.61-1.26-1.59-2-2.44v9H95V23.76A18.65,18.65,0,0,1,92.26,26a9.86,9.86,0,0,0-.85-2,16.93,16.93,0,0,0,6-6.23H92V15.9h4a15.46,15.46,0,0,0-1.83-2.63l1.52-1a12.17,12.17,0,0,1,2,2.7l-1.31.89h2l.37-.08,1.09.76a20.18,20.18,0,0,1-2.64,4.59c.87.81,2.53,2.42,3,2.86Zm10.69,4.66c.39,0,.48-.3.54-2.61a4.69,4.69,0,0,0,1.68.76c-.17,2.9-.65,3.62-2,3.62h-1.64c-1.63,0-2-.57-2-2.38V25h-1.59c-.33,3.54-1.26,5.92-5.18,7.27a5.1,5.1,0,0,0-1.07-1.48c3.46-1.07,4.16-2.94,4.42-5.79h-1.7V13.16h9.45V25h-2.44v4.72c0,.55,0,.63.44.63ZM103,16.58h5.66V14.79H103Zm0,3.4h5.66V18.15H103Zm0,3.39h5.66V21.52H103Z"/><path class="cls-1" d="M125.05,25.55a32.14,32.14,0,0,0-1.7-2.87v9.51h-2V23.37a21.61,21.61,0,0,1-2.79,5.08,11.59,11.59,0,0,0-1-1.88,21.61,21.61,0,0,0,3.49-6.38h-3.2V18.3h3.48V15.38c-.94.18-1.87.31-2.74.44a6.18,6.18,0,0,0-.57-1.57A32.38,32.38,0,0,0,125,12.49l1.16,1.65a20.41,20.41,0,0,1-2.81.83V18.3h3.05v1.89h-3.05v.31c.65.67,2.5,2.89,2.92,3.46Zm10.21,1.07v5.57h-2V27l-6.86,1.15-.31-1.94,7.17-1.2V12.22h2V24.66l2.37-.39.31,1.89Zm-4.75-2.94a18.75,18.75,0,0,0-3.63-3.25l1.28-1.17a20,20,0,0,1,3.72,3.09Zm.55-5.73a18.34,18.34,0,0,0-3.38-3.16L129,13.64a17.86,17.86,0,0,1,3.46,3Z"/><path class="cls-1" d="M151.3,23.44l-2.48.72v5.72c0,1.05-.22,1.59-.85,1.9a7.58,7.58,0,0,1-3.09.35,8,8,0,0,0-.61-1.83c1,0,1.87,0,2.13,0s.44-.11.44-.42V24.72c-.85.24-1.63.46-2.4.66l-.52-1.94,2.92-.7V18.36h-2.68V16.49h2.68V12.22h2v4.25h2.29v1.89h-2.29V22.2l2.24-.59ZM163,20.78A15.78,15.78,0,0,1,158.79,28a15.27,15.27,0,0,0,5.36,2.52,7.53,7.53,0,0,0-1.31,1.72,15.23,15.23,0,0,1-5.64-2.93,18.44,18.44,0,0,1-5.94,2.89,8.94,8.94,0,0,0-1.09-1.83,17.51,17.51,0,0,0,5.6-2.46,17.58,17.58,0,0,1-3.38-5.64l.28-.08h-.87V20.32h4.49v-3h-4.88V15.49h4.88V12.22h2v3.27h5v1.85h-5v3h3.09l.35-.06Zm-8.67,1.4a13.88,13.88,0,0,0,2.92,4.48,12.93,12.93,0,0,0,3.18-4.48Z"/><circle class="cls-2" cx="23.75" cy="36.59" r="5.74"/><path class="cls-2" d="M2.16.13c18.21,14.64,55,5.53,47.25,40.44C37.25,19.63-.19,36.4,2.16.13Z"/><path class="cls-2" d="M23.66,22.8a13.83,13.83,0,0,0-7.23,2.06c.64.23,1.3.45,2,.66a12.11,12.11,0,0,1,5.27-1.19,12.24,12.24,0,0,1,10,5.21c.75.23,1.5.48,2.23.74A13.78,13.78,0,0,0,23.66,22.8Z"/><path class="cls-2" d="M34.82,31.53A12.25,12.25,0,1,1,14.73,28.2h0a13.3,13.3,0,0,1,1.89-1.65c-.57-.19-1.13-.4-1.69-.62a13.71,13.71,0,0,0-1.31,1.22h0a13.78,13.78,0,1,0,23.83,9.44,13.58,13.58,0,0,0-.71-4.35C36.11,32,35.47,31.75,34.82,31.53Z"/><path class="cls-2" d="M46.41,17.41c2.65-3.76,3.73-9.12,2-17.41-4.12,4.66-10,7.5-15.89,10.13C37.88,11.81,42.84,13.94,46.41,17.41Z"/><path class="cls-2" d="M45.74,38.25a21.93,21.93,0,0,1-.39,2.8A22.14,22.14,0,1,1,7.4,21.57c-.39-.32-.77-.66-1.13-1a23.66,23.66,0,0,0,17.39,39.7,23.74,23.74,0,0,0,23.19-18.9c.09-.43.16-.87.23-1.32A20.18,20.18,0,0,0,45.74,38.25Z"/></svg>